<svg width="24" height="24" viewBox="0 0 24 24" fill="none" xmlns="http://www.w3.org/2000/svg">
    <path d="M8.99997 0H1.49997C0.671219 0 -3.05176e-05 0.67125 -3.05176e-05 1.5V9C-3.05176e-05 9.828 0.671219 10.5 1.49997 10.5H8.99997C9.82872 10.5 10.5 9.828 10.5 9V1.5C10.5 0.67125 9.82872 0 8.99997 0ZM8.99997 9H1.49997V1.5H8.99997V9Z" fill="white"/>
    <path d="M22.5 0H15C14.1712 0 13.5 0.67125 13.5 1.5V9C13.5 9.828 14.1712 10.5 15 10.5H22.5C23.328 10.5 24 9.828 24 9V1.5C24 0.67125 23.328 0 22.5 0ZM22.5 9H15V1.5H22.5V9Z" fill="white"/>
    <path d="M22.5 13.5H15C14.1712 13.5 13.5 14.172 13.5 15V22.5C13.5 23.3287 14.1712 24 15 24H22.5C23.328 24 24 23.3287 24 22.5V15C24 14.1712 23.328 13.5 22.5 13.5ZM22.5 22.5H15V15H22.5V22.5Z" fill="white"/>
    <path d="M8.99997 13.5H1.49997C0.671219 13.5 -3.05176e-05 14.172 -3.05176e-05 15V22.5C-3.05176e-05 23.3287 0.671219 24 1.49997 24H8.99997C9.82872 24 10.5 23.3287 10.5 22.5V15C10.5 14.1712 9.82872 13.5 8.99997 13.5ZM8.99997 22.5H1.49997V15H8.99997V22.5Z" fill="white"/>
</svg>
