<svg width="16" height="16" viewBox="0 0 16 16" fill="none" xmlns="http://www.w3.org/2000/svg">
<path fill-rule="evenodd" clip-rule="evenodd" d="M12.4493 2.26608L7.99977 6.71559L3.55072 2.26608C3.19595 1.91131 2.62074 1.91131 2.26642 2.26608C1.91119 2.6204 1.91119 3.19561 2.26642 3.55038L6.71547 7.99989L2.26642 12.4489C1.91119 12.8042 1.91119 13.3789 2.26642 13.7337C2.62074 14.0885 3.19595 14.0885 3.55072 13.7337L7.99977 9.28419L12.4493 13.7337C12.8041 14.0885 13.3793 14.0885 13.7336 13.7337C14.0888 13.3789 14.0888 12.8042 13.7336 12.4489L9.28453 7.99989L13.7336 3.55038C14.0888 3.19561 14.0888 2.6204 13.7336 2.26608C13.3793 1.91131 12.8041 1.91131 12.4493 2.26608Z" fill="white"/>
</svg>
