<svg width="24" height="24" viewBox="0 0 24 24" fill="none" xmlns="http://www.w3.org/2000/svg">
<path fillRule="evenodd" clipRule="evenodd" d="M19.6159 21.7823C20.2402 21.7823 20.749 21.2811 20.749 20.6661V3.33543C20.749 2.71891 20.2402 2.2177 19.6159 2.2177H4.38401C3.75973 2.2177 3.251 2.71891 3.251 3.33543V20.6661C3.251 21.2811 3.75973 21.7823 4.38401 21.7823H19.6159ZM4.38404 0H19.616C21.4813 0 23 1.49621 23 3.33543V20.666C23 22.5038 21.4813 24 19.616 24H4.38404C2.51869 24 1 22.5038 1 20.666V3.33543C1 1.49621 2.51869 0 4.38404 0ZM7.70972 6.04887H16.1105C16.7318 6.04887 17.2361 6.54563 17.2361 7.15772C17.2361 7.7698 16.7318 8.26657 16.1105 8.26657H7.70972C7.08844 8.26657 6.58421 7.7698 6.58421 7.15772C6.58421 6.54563 7.08844 6.04887 7.70972 6.04887ZM16.1105 11.2192H7.70972C7.08844 11.2192 6.58421 11.7145 6.58421 12.3281C6.58421 12.9402 7.08844 13.4369 7.70972 13.4369H16.1105C16.7318 13.4369 17.2361 12.9402 17.2361 12.3281C17.2361 11.7145 16.7318 11.2192 16.1105 11.2192ZM7.70972 16.3216H16.1105C16.7318 16.3216 17.2361 16.8183 17.2361 17.4304C17.2361 18.0425 16.7318 18.5393 16.1105 18.5393H7.70972C7.08844 18.5393 6.58421 18.0425 6.58421 17.4304C6.58421 16.8183 7.08844 16.3216 7.70972 16.3216Z" fill="white"/>
</svg>
