<svg width="24" height="24" viewBox="0 0 24 24" fill="none" xmlns="http://www.w3.org/2000/svg">
<circle cx="12" cy="12" r="12" fill="#FB9B2B"/>
<path fillRule="evenodd" clipRule="evenodd" d="M13.1111 12L9.25613 8.76186C8.9444 8.50001 8.91282 8.04514 9.18558 7.74589C9.45834 7.44663 9.93216 7.4163 10.2439 7.67815L14.7439 11.4581C15.0854 11.745 15.0854 12.255 14.7439 12.5419L10.2439 16.3218C9.93216 16.5837 9.45834 16.5534 9.18558 16.2541C8.91282 15.9549 8.9444 15.5 9.25613 15.2381L13.1111 12Z" fill="white"/>
<mask id="mask0" mask-type="alpha" maskUnits="userSpaceOnUse" x="9" y="7" width="6" height="10">
<path fillRule="evenodd" clipRule="evenodd" d="M13.1111 12L9.25613 8.76186C8.9444 8.50001 8.91282 8.04514 9.18558 7.74589C9.45834 7.44663 9.93216 7.4163 10.2439 7.67815L14.7439 11.4581C15.0854 11.745 15.0854 12.255 14.7439 12.5419L10.2439 16.3218C9.93216 16.5837 9.45834 16.5534 9.18558 16.2541C8.91282 15.9549 8.9444 15.5 9.25613 15.2381L13.1111 12Z" fill="white"/>
</mask>
</svg>
