<svg width="147" height="24" viewBox="0 0 147 24" fill="none" xmlns="http://www.w3.org/2000/svg">
<path d="M41.7656 17.6094C40.8021 17.9219 39.7604 18.0781 38.6406 18.0781C34.7344 18.0781 32.7812 16.138 32.7812 12.2578C32.7812 8.58594 34.7344 6.75 38.6406 6.75C39.7604 6.75 40.8021 6.90625 41.7656 7.21875V8.46875C40.8021 8.10417 39.8125 7.92188 38.7969 7.92188C35.75 7.92188 34.2266 9.36719 34.2266 12.2578C34.2266 15.3568 35.75 16.9062 38.7969 16.9062C39.8125 16.9062 40.8021 16.724 41.7656 16.3594V17.6094ZM44 18V9.79688H44.9766L45.2344 10.8438C45.9531 10.1458 46.8177 9.79688 47.8281 9.79688V11C46.849 11 46.0547 11.3464 45.4453 12.0391V18H44ZM48.3047 9.79688H49.875L52.1953 16.2031L54.5938 9.79688H56.125L52.7188 18.2422C52.1146 19.7318 51.2083 20.6615 50 21.0312L49.4453 20.0078C50.362 19.6068 51.0286 18.9531 51.4453 18.0469L48.3047 9.79688ZM57.4062 17.6094V16.3594C58.3698 16.6719 59.3438 16.8281 60.3281 16.8281C61.6354 16.8281 62.2891 16.4375 62.2891 15.6562C62.2891 14.9271 61.8333 14.5625 60.9219 14.5625H59.75C57.9792 14.5625 57.0938 13.7552 57.0938 12.1406C57.0938 10.5781 58.2318 9.79688 60.5078 9.79688C61.487 9.79688 62.4583 9.92708 63.4219 10.1875V11.4375C62.4583 11.125 61.487 10.9688 60.5078 10.9688C59.1432 10.9688 58.4609 11.3594 58.4609 12.1406C58.4609 12.8698 58.8906 13.2344 59.75 13.2344H60.9219C62.7969 13.2344 63.7344 14.0417 63.7344 15.6562C63.7344 17.2188 62.599 18 60.3281 18C59.3438 18 58.3698 17.8698 57.4062 17.6094ZM65.6875 8.46875H66.5938L66.9062 9.79688H69.125V10.9688H67.1328V15.6797C67.1328 16.4453 67.4635 16.8281 68.125 16.8281H69.125V18H67.75C66.375 18 65.6875 17.263 65.6875 15.7891V8.46875ZM70.5781 15.5234C70.5781 13.8411 71.6875 13 73.9062 13C74.6198 13 75.3333 13.0521 76.0469 13.1562V12.3828C76.0469 11.4401 75.3099 10.9688 73.8359 10.9688C72.9922 10.9688 72.1276 11.099 71.2422 11.3594V10.1875C72.1276 9.92708 72.9922 9.79688 73.8359 9.79688C76.2734 9.79688 77.4922 10.6458 77.4922 12.3438V18H76.6797L76.1797 17.1875C75.362 17.7292 74.4714 18 73.5078 18C71.5547 18 70.5781 17.1745 70.5781 15.5234ZM73.9062 14.1719C72.651 14.1719 72.0234 14.6146 72.0234 15.5C72.0234 16.3854 72.5182 16.8281 73.5078 16.8281C74.5078 16.8281 75.3542 16.5625 76.0469 16.0312V14.3281C75.3333 14.224 74.6198 14.1719 73.9062 14.1719ZM81.3672 6.82812V18H79.9219V6.82812H81.3672ZM85.3203 6.82812V18H83.875V6.82812H85.3203ZM88.8047 13.8672C88.8047 15.8411 89.625 16.8281 91.2656 16.8281C92.9062 16.8281 93.7266 15.8411 93.7266 13.8672C93.7266 11.9349 92.9062 10.9688 91.2656 10.9688C89.625 10.9688 88.8047 11.9349 88.8047 13.8672ZM87.3594 13.8984C87.3594 11.1641 88.6615 9.79688 91.2656 9.79688C93.8698 9.79688 95.1719 11.1641 95.1719 13.8984C95.1719 16.6276 93.8698 17.9922 91.2656 17.9922C88.6719 17.9922 87.3698 16.6276 87.3594 13.8984ZM102.609 11.1875C102.115 11.0625 101.503 11 100.773 11C99.0286 11 98.1562 11.9453 98.1562 13.8359C98.1562 15.7786 98.9818 16.75 100.633 16.75C101.383 16.75 102.042 16.6094 102.609 16.3281V11.1875ZM104.055 18C104.055 19.9792 102.797 20.9688 100.281 20.9688C99.2708 20.9688 98.375 20.8385 97.5938 20.5781V19.4062C98.3906 19.6667 99.2917 19.7969 100.297 19.7969C101.839 19.7969 102.609 19.1979 102.609 18V17.6094C101.995 17.8698 101.333 18 100.625 18C98.0312 18 96.7344 16.6172 96.7344 13.8516C96.7344 11.1484 98.1016 9.79688 100.836 9.79688C101.945 9.79688 103.018 9.90885 104.055 10.1328V18ZM106.406 18V9.79688H107.383L107.641 10.8438C108.359 10.1458 109.224 9.79688 110.234 9.79688V11C109.255 11 108.461 11.3464 107.852 12.0391V18H106.406ZM111.297 15.5234C111.297 13.8411 112.406 13 114.625 13C115.339 13 116.052 13.0521 116.766 13.1562V12.3828C116.766 11.4401 116.029 10.9688 114.555 10.9688C113.711 10.9688 112.846 11.099 111.961 11.3594V10.1875C112.846 9.92708 113.711 9.79688 114.555 9.79688C116.992 9.79688 118.211 10.6458 118.211 12.3438V18H117.398L116.898 17.1875C116.081 17.7292 115.19 18 114.227 18C112.273 18 111.297 17.1745 111.297 15.5234ZM114.625 14.1719C113.37 14.1719 112.742 14.6146 112.742 15.5C112.742 16.3854 113.237 16.8281 114.227 16.8281C115.227 16.8281 116.073 16.5625 116.766 16.0312V14.3281C116.052 14.224 115.339 14.1719 114.625 14.1719ZM122.008 16.3281C122.576 16.6094 123.208 16.75 123.906 16.75C125.609 16.75 126.461 15.7266 126.461 13.6797C126.461 11.8932 125.615 11 123.922 11C123.193 11 122.555 11.0625 122.008 11.1875V16.3281ZM120.562 10.1328C121.651 9.90885 122.776 9.79688 123.938 9.79688C126.568 9.79688 127.883 11.0964 127.883 13.6953C127.883 16.5651 126.56 18 123.914 18C123.258 18 122.622 17.8698 122.008 17.6094V20.9688H120.562V10.1328ZM129.844 18V6.82812H131.289V10.6875C131.987 10.0938 132.839 9.79688 133.844 9.79688C135.891 9.79688 136.914 10.8151 136.914 12.8516V18H135.469V12.8281C135.469 11.6094 134.862 11 133.648 11C132.82 11 132.034 11.3464 131.289 12.0391V18H129.844ZM138.289 9.79688H139.859L142.18 16.2031L144.578 9.79688H146.109L142.703 18.2422C142.099 19.7318 141.193 20.6615 139.984 21.0312L139.43 20.0078C140.346 19.6068 141.013 18.9531 141.43 18.0469L138.289 9.79688Z" fill="#373838"/>
<g clip-path="url(#clip0)">
<path d="M7.69287 8.59689C7.69287 9.1379 7.25308 9.5777 6.71206 9.5777C6.17105 9.5777 5.73126 9.1379 5.73126 8.59689C5.73126 8.05588 6.17105 7.61609 6.71206 7.61609C7.25308 7.61609 7.69287 8.05588 7.69287 8.59689Z" fill="#F5B895"/>
<path d="M17.103 16.9145C17.9743 16.9145 18.6807 16.2082 18.6807 15.3369C18.6807 14.4656 17.9743 13.7592 17.103 13.7592C16.2317 13.7592 15.5253 14.4656 15.5253 15.3369C15.5253 16.2082 16.2317 16.9145 17.103 16.9145Z" fill="#F5B895"/>
<path d="M16.1554 1.01399C16.3229 0.813295 16.5603 0.691131 16.8203 0.666698C16.85 0.664953 16.8779 0.663208 16.9075 0.663208C17.1379 0.663208 17.3578 0.743487 17.5358 0.893574C17.7365 1.06111 17.8587 1.29846 17.8831 1.5585C17.9058 1.82028 17.8255 2.07333 17.658 2.27403C17.3107 2.68764 16.6911 2.74174 16.2758 2.39445C16.0751 2.22691 15.9529 1.98956 15.9285 1.72953C15.9075 1.46949 15.9861 1.21469 16.1554 1.01399Z" fill="#F5B895"/>
<path d="M8.15188 15.7958C8.50615 15.7958 8.79411 16.0838 8.79411 16.4381C8.79411 16.7923 8.50615 17.0803 8.15188 17.0803C7.7976 17.0803 7.50964 16.7923 7.50964 16.4381C7.50964 16.0838 7.7976 15.7958 8.15188 15.7958Z" fill="#0E4575"/>
<path d="M9.25308 0C9.79409 0 10.2339 0.439791 10.2339 0.980803C10.2339 1.52182 9.79409 1.96161 9.25308 1.96161C8.71207 1.96161 8.27228 1.52182 8.27228 0.980803C8.27228 0.439791 8.71207 0 9.25308 0Z" fill="#0E4575"/>
<path d="M12.1187 23.3508C12.0297 23.5969 11.8482 23.7941 11.6109 23.904C11.3735 24.014 11.1065 24.0262 10.8604 23.9372C10.3526 23.7522 10.0891 23.1885 10.2741 22.6806C10.4591 22.1728 11.0227 21.9093 11.5306 22.0943C11.7767 22.1833 11.9739 22.363 12.0838 22.6021C12.1973 22.8377 12.2095 23.1047 12.1187 23.3508Z" fill="#0E4575"/>
<path d="M22.9075 11.8272C22.9075 12.1623 22.8918 12.4991 22.8604 12.8324C22.7487 12.8412 22.637 12.8604 22.5271 12.89C22.3997 12.9232 22.2793 12.9703 22.1641 13.0279L17.0576 7.09946C17.2095 6.85862 17.2985 6.57415 17.2985 6.26874C17.2985 5.70504 16.9983 5.20941 16.548 4.93541L16.9006 3.54099C16.9023 3.54099 16.9041 3.54099 16.9058 3.54099C17.3997 3.54099 17.8901 3.34902 18.2566 2.97729C21.1763 4.98777 22.9075 8.26525 22.9075 11.8272Z" fill="#0E4575"/>
<path d="M21.3735 13.7749C21.2496 13.9896 21.171 14.2199 21.1379 14.4573L19.4956 14.6266C19.1972 13.6231 18.2827 12.8814 17.192 12.843L16.4293 7.7749L21.4695 13.6266C21.4346 13.6754 21.4031 13.7243 21.3735 13.7749Z" fill="#0E4575"/>
<path d="M11.9564 21.2758C11.9197 21.2601 11.8848 21.2444 11.8464 21.2321C11.5114 21.11 11.1658 21.089 10.8394 21.1519L9.19373 17.5986C9.44678 17.37 9.62479 17.0611 9.68762 16.7121L14.7243 16.0925C14.8325 16.4328 15.0122 16.74 15.2443 17L11.9564 21.2758Z" fill="#0E4575"/>
<path d="M7.02792 15.356L2.83246 13.2356C2.83944 13.206 2.84468 13.1745 2.85166 13.1431C2.91449 12.7836 2.87435 12.4206 2.73822 12.0908L5.50087 10.0576C5.80105 10.3072 6.17976 10.466 6.59337 10.4904L7.43107 15.0524C7.28098 15.1327 7.14485 15.2356 7.02792 15.356Z" fill="#0E4575"/>
<path d="M9.25308 2.87956C9.67891 2.87956 10.0733 2.7382 10.3909 2.50085L14.2932 5.6841C14.2286 5.84466 14.1885 6.01743 14.1798 6.19893L8.38222 7.69457C8.22864 7.4101 8.00351 7.17101 7.73126 6.99823L9.10648 2.87607C9.1536 2.87782 9.20247 2.87956 9.25308 2.87956Z" fill="#0E4575"/>
<path d="M14.6126 15.1798L9.57591 15.7993C9.53054 15.6998 9.47644 15.6038 9.41187 15.5166L15.2147 7.73822C15.3089 7.77138 15.4066 7.79581 15.5061 7.81152L16.2845 12.9773C15.356 13.3037 14.6754 14.1588 14.6126 15.1798Z" fill="#0E4575"/>
<path d="M7.49567 10.3263C8.15186 10.0279 8.61085 9.36474 8.61085 8.59685C8.61085 8.59162 8.61085 8.58638 8.61085 8.58115L14.4084 7.08551C14.4311 7.12041 14.4538 7.15532 14.4782 7.18848L8.67542 14.9686C8.56722 14.9302 8.45204 14.9023 8.33336 14.8883L7.49567 10.3263Z" fill="#0E4575"/>
<path d="M15.0157 1.46771C15.0052 1.5794 15.0052 1.69459 15.014 1.80977C15.0576 2.31588 15.2967 2.77312 15.6859 3.09947C15.7888 3.18499 15.897 3.25829 16.0105 3.31937L15.6579 4.71204C15.3682 4.726 15.0995 4.82024 14.8726 4.97207L10.9703 1.78883C11.0663 1.58813 11.1257 1.36649 11.1449 1.13438C11.4834 1.10296 11.8272 1.08551 12.1675 1.08551C13.1361 1.08726 14.0925 1.21466 15.0157 1.46771Z" fill="#0E4575"/>
<path d="M7.69289 2.0611C7.83774 2.26878 8.02099 2.44679 8.23565 2.58291L6.85868 6.70507C6.80982 6.70158 6.76095 6.69809 6.71034 6.69809C5.66322 6.69809 4.81156 7.54975 4.81156 8.59687C4.81156 8.85167 4.86217 9.096 4.95467 9.31938L2.19376 11.3525C1.98259 11.1763 1.73303 11.0489 1.46252 10.9773C1.76619 7.10996 4.16235 3.68064 7.69289 2.0611Z" fill="#0E4575"/>
<path d="M1.77313 14.5393C1.8761 14.4921 1.97558 14.4363 2.06982 14.37C2.20071 14.2792 2.31763 14.1728 2.41886 14.0558L6.61257 16.1763C6.59861 16.2618 6.58989 16.349 6.58989 16.4398C6.58989 17.3002 7.28971 18 8.15009 18C8.22165 18 8.29146 17.9948 8.35952 17.986L10.0052 21.5393C9.78186 21.719 9.59512 21.9529 9.46947 22.2269C5.71205 21.2531 2.75044 18.2967 1.77313 14.5393Z" fill="#0E4575"/>
<path d="M13.0332 22.5323C13.0053 22.4241 12.9669 22.3176 12.918 22.2129C12.8534 22.0768 12.7749 21.9494 12.6841 21.8342L15.9704 17.5602C16.3107 17.733 16.6946 17.8324 17.1012 17.8324C18.4084 17.8324 19.4834 16.822 19.5882 15.541L21.2321 15.3717C21.3665 15.7452 21.6126 16.0628 21.9389 16.2879C20.3264 19.8185 16.9005 22.2199 13.0332 22.5323Z" fill="#0E4575"/>
<path d="M15.7382 5.6283C16.0925 5.6283 16.3805 5.91625 16.3805 6.27053C16.3805 6.62481 16.0925 6.91276 15.7382 6.91276C15.384 6.91276 15.096 6.62481 15.096 6.27053C15.096 5.91625 15.384 5.6283 15.7382 5.6283Z" fill="#658DC6"/>
<path d="M0.0157318 12.644C0.061107 12.3857 0.204214 12.1606 0.418873 12.0105C0.586412 11.8936 0.78013 11.8325 0.979083 11.8325C1.03667 11.8325 1.09427 11.8378 1.15186 11.8482C1.41015 11.8936 1.63528 12.0367 1.78537 12.2514C1.93545 12.466 1.99304 12.7261 1.94767 12.9844C1.90229 13.2426 1.75919 13.4678 1.54453 13.6179C1.32987 13.7679 1.06983 13.8255 0.811543 13.7802C0.277512 13.6859 -0.078509 13.1763 0.0157318 12.644Z" fill="#658DC6"/>
<path d="M23.8674 15.2147C23.7365 15.4416 23.5254 15.6039 23.2723 15.6719C23.0192 15.74 22.7557 15.7051 22.5288 15.5742C22.302 15.4433 22.1397 15.2322 22.0716 14.9791C22.0035 14.726 22.0384 14.4625 22.1693 14.2356C22.3002 14.0088 22.5114 13.8465 22.7644 13.7784C22.8482 13.7557 22.9355 13.7452 23.0192 13.7452C23.1885 13.7452 23.3561 13.7906 23.5079 13.8779C23.7348 14.0088 23.8971 14.2199 23.9651 14.473C24.0332 14.7243 23.9983 14.9878 23.8674 15.2147Z" fill="#658DC6"/>
</g>
<defs>
<clipPath id="clip0">
<path d="M0 0H24V23.9965H0V0Z" fill="white"/>
</clipPath>
</defs>
</svg>
