<svg width="20" height="24" viewBox="0 0 20 24" fill="none" xmlns="http://www.w3.org/2000/svg">
<path fillRule="evenodd" clipRule="evenodd" d="M11.529 0.217871C13.5794 0.760891 15.2286 2.41011 15.7717 4.4606C16.9949 9.08151 12.8635 13.2134 8.24482 11.9873C6.19477 11.4444 4.54538 9.79543 4.00225 7.74618C2.77756 3.1254 6.90859 -1.00673 11.529 0.217871ZM8.74543 10.0992C11.9154 10.9407 14.7231 8.13267 13.8834 4.96056C13.5201 3.58871 12.4008 2.46942 11.0288 2.10605C7.85722 1.26546 5.04967 4.07376 5.89037 7.24575C6.25371 8.61662 7.3732 9.73581 8.74543 10.0992ZM9.90854 13.3648C15.169 13.3648 19.5658 16.2175 19.5658 19.9735V20.152C19.5658 22.2784 17.8436 24 15.7177 24H4.09935C1.97244 24 0.25 22.2786 0.25 20.152V19.9735C0.25 16.2176 4.64784 13.3648 9.90854 13.3648ZM9.90856 15.3181C5.59492 15.3181 2.20334 17.5182 2.20334 19.9735V20.152C2.20334 21.1996 3.05098 22.0467 4.09937 22.0467H15.7177C16.765 22.0467 17.6125 21.1994 17.6125 20.152V19.9735C17.6125 17.518 14.2219 15.3181 9.90856 15.3181Z" fill="white"/>
</svg>
