<svg width="129" height="17" viewBox="0 0 129 17" fill="none" xmlns="http://www.w3.org/2000/svg">
<path d="M10.9863 12.5605C9.90234 12.9121 8.73047 13.0879 7.4707 13.0879C3.07617 13.0879 0.878906 10.9053 0.878906 6.54004C0.878906 2.40918 3.07617 0.34375 7.4707 0.34375C8.73047 0.34375 9.90234 0.519531 10.9863 0.871094V2.27734C9.90234 1.86719 8.78906 1.66211 7.64648 1.66211C4.21875 1.66211 2.50488 3.28809 2.50488 6.54004C2.50488 10.0264 4.21875 11.7695 7.64648 11.7695C8.78906 11.7695 9.90234 11.5645 10.9863 11.1543V12.5605ZM13.5 13V3.77148H14.5986L14.8887 4.94922C15.6973 4.16406 16.6699 3.77148 17.8066 3.77148V5.125C16.7051 5.125 15.8115 5.51465 15.126 6.29395V13H13.5ZM18.3428 3.77148H20.1094L22.7197 10.9785L25.418 3.77148H27.1406L23.3086 13.2725C22.6289 14.9482 21.6094 15.9941 20.25 16.4102L19.626 15.2588C20.6572 14.8076 21.4072 14.0723 21.876 13.0527L18.3428 3.77148ZM28.582 12.5605V11.1543C29.666 11.5059 30.7617 11.6816 31.8691 11.6816C33.3398 11.6816 34.0752 11.2422 34.0752 10.3633C34.0752 9.54297 33.5625 9.13281 32.5371 9.13281H31.2188C29.2266 9.13281 28.2305 8.22461 28.2305 6.4082C28.2305 4.65039 29.5107 3.77148 32.0713 3.77148C33.1729 3.77148 34.2656 3.91797 35.3496 4.21094V5.61719C34.2656 5.26562 33.1729 5.08984 32.0713 5.08984C30.5361 5.08984 29.7686 5.5293 29.7686 6.4082C29.7686 7.22852 30.252 7.63867 31.2188 7.63867H32.5371C34.6465 7.63867 35.7012 8.54688 35.7012 10.3633C35.7012 12.1211 34.4238 13 31.8691 13C30.7617 13 29.666 12.8535 28.582 12.5605ZM37.8984 2.27734H38.918L39.2695 3.77148H41.7656V5.08984H39.5244V10.3896C39.5244 11.251 39.8965 11.6816 40.6406 11.6816H41.7656V13H40.2188C38.6719 13 37.8984 12.1709 37.8984 10.5127V2.27734ZM43.4004 10.2139C43.4004 8.32129 44.6484 7.375 47.1445 7.375C47.9473 7.375 48.75 7.43359 49.5527 7.55078V6.68066C49.5527 5.62012 48.7236 5.08984 47.0654 5.08984C46.1162 5.08984 45.1436 5.23633 44.1475 5.5293V4.21094C45.1436 3.91797 46.1162 3.77148 47.0654 3.77148C49.8076 3.77148 51.1787 4.72656 51.1787 6.63672V13H50.2646L49.7021 12.0859C48.7822 12.6953 47.7803 13 46.6963 13C44.499 13 43.4004 12.0713 43.4004 10.2139ZM47.1445 8.69336C45.7324 8.69336 45.0264 9.19141 45.0264 10.1875C45.0264 11.1836 45.583 11.6816 46.6963 11.6816C47.8213 11.6816 48.7734 11.3828 49.5527 10.7852V8.86914C48.75 8.75195 47.9473 8.69336 47.1445 8.69336ZM55.5381 0.431641V13H53.9121V0.431641H55.5381ZM59.9854 0.431641V13H58.3594V0.431641H59.9854ZM63.9053 8.35059C63.9053 10.5713 64.8281 11.6816 66.6738 11.6816C68.5195 11.6816 69.4424 10.5713 69.4424 8.35059C69.4424 6.17676 68.5195 5.08984 66.6738 5.08984C64.8281 5.08984 63.9053 6.17676 63.9053 8.35059ZM62.2793 8.38574C62.2793 5.30957 63.7441 3.77148 66.6738 3.77148C69.6035 3.77148 71.0684 5.30957 71.0684 8.38574C71.0684 11.4561 69.6035 12.9912 66.6738 12.9912C63.7559 12.9912 62.291 11.4561 62.2793 8.38574ZM79.4355 5.33594C78.8789 5.19531 78.1904 5.125 77.3701 5.125C75.4072 5.125 74.4258 6.18848 74.4258 8.31543C74.4258 10.501 75.3545 11.5938 77.2119 11.5938C78.0557 11.5938 78.7969 11.4355 79.4355 11.1191V5.33594ZM81.0615 13C81.0615 15.2266 79.6465 16.3398 76.8164 16.3398C75.6797 16.3398 74.6719 16.1934 73.793 15.9004V14.582C74.6895 14.875 75.7031 15.0215 76.834 15.0215C78.5684 15.0215 79.4355 14.3477 79.4355 13V12.5605C78.7441 12.8535 78 13 77.2031 13C74.2852 13 72.8262 11.4443 72.8262 8.33301C72.8262 5.29199 74.3643 3.77148 77.4404 3.77148C78.6885 3.77148 79.8955 3.89746 81.0615 4.14941V13ZM83.707 13V3.77148H84.8057L85.0957 4.94922C85.9043 4.16406 86.877 3.77148 88.0137 3.77148V5.125C86.9121 5.125 86.0186 5.51465 85.333 6.29395V13H83.707ZM89.209 10.2139C89.209 8.32129 90.457 7.375 92.9531 7.375C93.7559 7.375 94.5586 7.43359 95.3613 7.55078V6.68066C95.3613 5.62012 94.5322 5.08984 92.874 5.08984C91.9248 5.08984 90.9521 5.23633 89.9561 5.5293V4.21094C90.9521 3.91797 91.9248 3.77148 92.874 3.77148C95.6162 3.77148 96.9873 4.72656 96.9873 6.63672V13H96.0732L95.5107 12.0859C94.5908 12.6953 93.5889 13 92.5049 13C90.3076 13 89.209 12.0713 89.209 10.2139ZM92.9531 8.69336C91.541 8.69336 90.835 9.19141 90.835 10.1875C90.835 11.1836 91.3916 11.6816 92.5049 11.6816C93.6299 11.6816 94.582 11.3828 95.3613 10.7852V8.86914C94.5586 8.75195 93.7559 8.69336 92.9531 8.69336ZM101.259 11.1191C101.897 11.4355 102.609 11.5938 103.395 11.5938C105.311 11.5938 106.269 10.4424 106.269 8.13965C106.269 6.12988 105.316 5.125 103.412 5.125C102.592 5.125 101.874 5.19531 101.259 5.33594V11.1191ZM99.6328 4.14941C100.857 3.89746 102.123 3.77148 103.43 3.77148C106.389 3.77148 107.868 5.2334 107.868 8.15723C107.868 11.3857 106.38 13 103.403 13C102.665 13 101.95 12.8535 101.259 12.5605V16.3398H99.6328V4.14941ZM110.074 13V0.431641H111.7V4.77344C112.485 4.10547 113.443 3.77148 114.574 3.77148C116.877 3.77148 118.028 4.91699 118.028 7.20801V13H116.402V7.18164C116.402 5.81055 115.72 5.125 114.354 5.125C113.423 5.125 112.538 5.51465 111.7 6.29395V13H110.074ZM119.575 3.77148H121.342L123.952 10.9785L126.65 3.77148H128.373L124.541 13.2725C123.861 14.9482 122.842 15.9941 121.482 16.4102L120.858 15.2588C121.89 14.8076 122.64 14.0723 123.108 13.0527L119.575 3.77148Z" fill="#334150"/>
</svg>
