<svg width="170" height="22" viewBox="0 0 170 22" fill="none" xmlns="http://www.w3.org/2000/svg">
<path d="M13.4772 16.7287C12.0318 17.2101 10.4692 17.4508 8.78947 17.4508C2.92982 17.4508 0 14.4621 0 8.48468C0 2.82823 2.92982 0 8.78947 0C10.4692 0 12.0318 0.2407 13.4772 0.722101V2.6477C12.0318 2.08607 10.5474 1.80525 9.02385 1.80525C4.45333 1.80525 2.16807 4.03173 2.16807 8.48468C2.16807 13.2586 4.45333 15.6455 9.02385 15.6455C10.5474 15.6455 12.0318 15.3647 13.4772 14.8031V16.7287Z" fill="white"/>
<path d="M16.8289 17.3304V4.69365H18.2938L18.6805 6.30635C19.7587 5.23122 21.0557 4.69365 22.5714 4.69365V6.54705C21.1025 6.54705 19.9111 7.0806 18.997 8.1477V17.3304H16.8289Z" fill="white"/>
<path d="M23.2862 4.69365H25.6418L29.1224 14.5624L32.7203 4.69365H35.0172L29.9076 17.7035C29.0013 19.9982 27.6419 21.4303 25.8293 22L24.9972 20.4234C26.3723 19.8056 27.3724 18.7987 27.9974 17.4026L23.2862 4.69365Z" fill="white"/>
<path d="M36.9392 16.7287V14.8031C38.3846 15.2845 39.8456 15.5252 41.3222 15.5252C43.2832 15.5252 44.2638 14.9234 44.2638 13.7199C44.2638 12.5966 43.5801 12.035 42.2129 12.035H40.455C37.7986 12.035 36.4704 10.7914 36.4704 8.30416C36.4704 5.89716 38.1775 4.69365 41.5918 4.69365C43.0606 4.69365 44.5177 4.89424 45.9631 5.2954V7.22101C44.5177 6.73961 43.0606 6.49891 41.5918 6.49891C39.5448 6.49891 38.5213 7.10066 38.5213 8.30416C38.5213 9.42742 39.1659 9.98906 40.455 9.98906H42.2129C45.0255 9.98906 46.4318 11.2327 46.4318 13.7199C46.4318 16.1269 44.7286 17.3304 41.3222 17.3304C39.8456 17.3304 38.3846 17.1298 36.9392 16.7287Z" fill="white"/>
<path d="M49.3616 2.6477H50.7211L51.1899 4.69365H54.5181V6.49891H51.5297V13.756C51.5297 14.9354 52.0258 15.5252 53.0181 15.5252H54.5181V17.3304H52.4555C50.3929 17.3304 49.3616 16.1951 49.3616 13.9245V2.6477Z" fill="white"/>
<path d="M56.6979 13.5153C56.6979 10.9238 58.3621 9.62801 61.6903 9.62801C62.7607 9.62801 63.8311 9.70824 64.9014 9.86871V8.67724C64.9014 7.22502 63.7959 6.49891 61.5849 6.49891C60.3192 6.49891 59.0222 6.69949 57.6941 7.10066V5.2954C59.0222 4.89424 60.3192 4.69365 61.5849 4.69365C65.2413 4.69365 67.0695 6.00146 67.0695 8.61707V17.3304H65.8507L65.1007 16.0788C63.874 16.9132 62.538 17.3304 61.0927 17.3304C58.1628 17.3304 56.6979 16.0587 56.6979 13.5153ZM61.6903 11.4333C59.8074 11.4333 58.866 12.1152 58.866 13.4792C58.866 14.8432 59.6082 15.5252 61.0927 15.5252C62.5927 15.5252 63.8623 15.116 64.9014 14.2976V11.674C63.8311 11.5135 62.7607 11.4333 61.6903 11.4333Z" fill="white"/>
<path d="M72.8823 0.12035V17.3304H70.7142V0.12035H72.8823Z" fill="white"/>
<path d="M78.8122 0.12035V17.3304H76.6441V0.12035H78.8122Z" fill="white"/>
<path d="M84.039 10.9639C84.039 14.0047 85.2695 15.5252 87.7306 15.5252C90.1917 15.5252 91.4222 14.0047 91.4222 10.9639C91.4222 7.98724 90.1917 6.49891 87.7306 6.49891C85.2695 6.49891 84.039 7.98724 84.039 10.9639ZM81.871 11.012C81.871 6.79978 83.8242 4.69365 87.7306 4.69365C91.637 4.69365 93.5902 6.79978 93.5902 11.012C93.5902 15.2163 91.637 17.3184 87.7306 17.3184C83.8398 17.3184 81.8866 15.2163 81.871 11.012Z" fill="white"/>
<path d="M104.747 6.83589C104.005 6.64333 103.087 6.54705 101.993 6.54705C99.3757 6.54705 98.067 8.00328 98.067 10.9158C98.067 13.9085 99.3054 15.4048 101.782 15.4048C102.907 15.4048 103.895 15.1882 104.747 14.7549V6.83589ZM106.915 17.3304C106.915 20.3793 105.028 21.9037 101.255 21.9037C99.739 21.9037 98.3951 21.7031 97.2232 21.302V19.4967C98.4186 19.8979 99.7702 20.0985 101.278 20.0985C103.591 20.0985 104.747 19.1758 104.747 17.3304V16.7287C103.825 17.1298 102.833 17.3304 101.77 17.3304C97.8795 17.3304 95.9341 15.2002 95.9341 10.9398C95.9341 6.77571 97.985 4.69365 102.087 4.69365C103.751 4.69365 105.36 4.86616 106.915 5.21116V17.3304Z" fill="white"/>
<path d="M110.443 17.3304V4.69365H111.907L112.294 6.30635C113.372 5.23122 114.669 4.69365 116.185 4.69365V6.54705C114.716 6.54705 113.525 7.0806 112.611 8.1477V17.3304H110.443Z" fill="white"/>
<path d="M117.779 13.5153C117.779 10.9238 119.443 9.62801 122.771 9.62801C123.842 9.62801 124.912 9.70824 125.982 9.86871V8.67724C125.982 7.22502 124.877 6.49891 122.666 6.49891C121.4 6.49891 120.103 6.69949 118.775 7.10066V5.2954C120.103 4.89424 121.4 4.69365 122.666 4.69365C126.322 4.69365 128.15 6.00146 128.15 8.61707V17.3304H126.932L126.182 16.0788C124.955 16.9132 123.619 17.3304 122.174 17.3304C119.244 17.3304 117.779 16.0587 117.779 13.5153ZM122.771 11.4333C120.888 11.4333 119.947 12.1152 119.947 13.4792C119.947 14.8432 120.689 15.5252 122.174 15.5252C123.674 15.5252 124.943 15.116 125.982 14.2976V11.674C124.912 11.5135 123.842 11.4333 122.771 11.4333Z" fill="white"/>
<path d="M133.846 14.7549C134.698 15.1882 135.647 15.4048 136.694 15.4048C139.249 15.4048 140.526 13.8282 140.526 10.6751C140.526 7.92305 139.256 6.54705 136.717 6.54705C135.623 6.54705 134.666 6.64333 133.846 6.83589V14.7549ZM131.678 5.21116C133.311 4.86616 134.998 4.69365 136.741 4.69365C140.686 4.69365 142.659 6.69548 142.659 10.6991C142.659 15.12 140.674 17.3304 136.706 17.3304C135.721 17.3304 134.768 17.1298 133.846 16.7287V21.9037H131.678V5.21116Z" fill="white"/>
<path d="M145.6 17.3304V0.12035H147.769V6.06565C148.815 5.15098 150.093 4.69365 151.601 4.69365C154.671 4.69365 156.206 6.26222 156.206 9.39934V17.3304H154.038V9.36324C154.038 7.48578 153.128 6.54705 151.308 6.54705C150.066 6.54705 148.886 7.0806 147.769 8.1477V17.3304H145.6Z" fill="white"/>
<path d="M158.269 4.69365H160.625L164.105 14.5624L167.703 4.69365H170L164.89 17.7035C163.984 19.9982 162.625 21.4303 160.812 22L159.98 20.4234C161.355 19.8056 162.355 18.7987 162.98 17.4026L158.269 4.69365Z" fill="white"/>
</svg>
