<svg width="24" height="24" viewBox="0 0 24 24" fill="none" xmlns="http://www.w3.org/2000/svg">
<path fillRule="evenodd" clipRule="evenodd" d="M12.2357 2.83121H1.26558C0.566981 2.83121 0 2.26423 0 1.56563C0 0.86703 0.566981 0.300049 1.26558 0.300049H12.2357C12.9343 0.300049 13.5012 0.86703 13.5012 1.56563C13.5012 2.26423 12.9343 2.83121 12.2357 2.83121ZM12.2357 8.49984H1.26558C0.566981 8.49984 0 7.93286 0 7.23426C0 6.53566 0.566981 5.96868 1.26558 5.96868H12.2357C12.9343 5.96868 13.5012 6.53566 13.5012 7.23426C13.5012 7.93286 12.9343 8.49984 12.2357 8.49984ZM12.2357 11.4728H1.26558C0.566981 11.4728 0 12.0398 0 12.7384C0 13.437 0.566981 14.0039 1.26558 14.0039H12.2357C12.9343 14.0039 13.5012 13.437 13.5012 12.7384C13.5012 12.0398 12.9343 11.4728 12.2357 11.4728ZM20.0159 16.9635H22.7344C23.433 16.9635 24 17.5305 24 18.2291C24 18.9277 23.433 19.4947 22.7344 19.4947H20.0159V22.2132C20.0159 22.9118 19.449 23.4788 18.7504 23.4788C18.0518 23.4788 17.4848 22.9118 17.4848 22.2132V19.4947H14.7663C14.0677 19.4947 13.5007 18.9277 13.5007 18.2291C13.5007 17.5305 14.0677 16.9635 14.7663 16.9635H17.4848V14.2468C17.4848 13.5482 18.0518 12.9812 18.7504 12.9812C19.449 12.9812 20.0159 13.5482 20.0159 14.2468V16.9635Z" fill="#7F8FA4"/>
</svg>
